<?xml version="1.0" encoding="utf-8"?>
<svg version="1.1" id="Layer_1" xmlns="http://www.w3.org/2000/svg" xmlns:xlink="http://www.w3.org/1999/xlink" x="0px" y="0px"
	 viewBox="0 0 469.45 259.39" style="enable-background:new 0 0 469.45 259.39;" xml:space="preserve">
<style type="text/css">
	.st0{fill:url(#SVGID_1_);}
</style>
<linearGradient id="SVGID_1_" gradientUnits="userSpaceOnUse" x1="0" y1="344.2685" x2="469.4546" y2="344.2685" gradientTransform="matrix(1 0 0 -1 0 473.9612)">
	<stop  offset="0.07" style="stop-color:#F65A00"/>
	<stop  offset="0.2953" style="stop-color:#FD7C00"/>
	<stop  offset="0.5228" style="stop-color:#FDA500"/>
	<stop  offset="0.9533" style="stop-color:#FDCD18"/>
	<stop  offset="1" style="stop-color:#FEEAA1"/>
</linearGradient>
<path class="st0" d="M459.02,59.75L469.45,0H282.62l-35.09,199.64h-29.4c-7.59,0-13.75-0.95-18.49-2.37
	c-4.74-1.42-8.54-3.79-10.91-6.16c-2.37-2.37-4.27-5.69-5.22-9.01c-0.95-3.32-1.42-7.11-1.42-11.38c7.59-3.79,14.7-8.54,21.34-13.75
	c6.64-5.22,12.33-11.38,17.55-18.02c5.22-6.64,9.48-14.23,12.8-21.81c3.32-8.06,6.16-16.6,7.59-25.13
	c2.37-13.28,2.37-25.61-0.47-36.99s-7.59-20.86-15.17-28.93c-7.11-8.06-16.12-14.7-27.03-18.97c-10.91-4.74-23.71-6.64-37.46-6.64
	H45.52L0,259.39h72.08l13.28-76.82h25.13c0,8.54,1.42,17.55,4.27,26.55c2.85,9.01,7.59,17.55,15.17,24.66
	c7.11,7.59,17.07,13.75,29.4,18.49c12.8,4.74,28.93,7.11,48.37,7.11h29.4h18.97h52.64l15.65-87.73h98.16l10.43-59.75h-98.16
	l9.01-51.69h115.23V59.75z M169.29,91.52c-0.95,4.27-2.37,8.54-4.27,12.33c-2.37,3.79-4.74,7.11-7.59,9.96
	c-2.85,2.85-6.64,5.22-9.96,6.64c-3.79,1.42-7.59,2.37-11.38,2.37H96.26l10.91-63.07H147c3.79,0,7.11,0.95,10.43,2.37
	c3.32,1.42,5.69,4.27,7.59,7.11c1.9,2.85,3.32,6.16,4.27,10.43C170.24,83.46,170.24,87.25,169.29,91.52z"/>
</svg>
