<?xml version="1.0" encoding="utf-8"?>
<svg version="1.2" baseProfile="tiny" id="Layer_1" xmlns="http://www.w3.org/2000/svg" xmlns:xlink="http://www.w3.org/1999/xlink"
	 x="0px" y="0px" viewBox="0 0 280.9 62.7" xml:space="preserve">
<path fill="none" d="M34.8,14.6c-0.4-0.6-1-1.1-1.6-1.5s-1.4-0.5-2.2-0.5h-8.5l-2.3,13.3h8.4c0.8,0,1.6-0.2,2.4-0.5
	c0.8-0.3,1.5-0.8,2.1-1.4c0.6-0.6,1.2-1.3,1.6-2.1c0.5-0.8,0.8-1.7,0.9-2.6c0.2-0.9,0.2-1.7,0-2.6C35.5,16,35.2,15.2,34.8,14.6z"/>
<linearGradient id="SVGID_1_" gradientUnits="userSpaceOnUse" x1="7.068321e-06" y1="27.3296" x2="99.0283" y2="27.3296">
	<stop  offset="6.999352e-02" style="stop-color:#001652"/>
	<stop  offset="0.2953" style="stop-color:#001652"/>
	<stop  offset="0.5228" style="stop-color:#012260"/>
	<stop  offset="0.9533" style="stop-color:#044086"/>
	<stop  offset="1" style="stop-color:#04448A"/>
</linearGradient>
<path fill="url(#SVGID_1_)" d="M96.8,12.6L99,0H59.6l-7.4,42.1H46c-1.6,0-2.9-0.2-3.9-0.5s-1.8-0.8-2.3-1.3
	c-0.5-0.5-0.9-1.2-1.1-1.9c-0.2-0.7-0.3-1.5-0.3-2.4c1.6-0.8,3.1-1.8,4.5-2.9c1.4-1.1,2.6-2.4,3.7-3.8c1.1-1.4,2-3,2.7-4.6
	c0.7-1.7,1.3-3.5,1.6-5.3c0.5-2.8,0.5-5.4-0.1-7.8c-0.6-2.4-1.6-4.4-3.2-6.1c-1.5-1.7-3.4-3.1-5.7-4c-2.3-1-5-1.4-7.9-1.4H9.6
	L0,54.7h15.2L18,38.5h5.3c0,1.8,0.3,3.7,0.9,5.6c0.6,1.9,1.6,3.7,3.2,5.2c1.5,1.6,3.6,2.9,6.2,3.9c2.7,1,6.1,1.5,10.2,1.5H50H54
	h11.1l3.3-18.5h20.7l2.2-12.6H70.6l1.9-10.9H96.8z M35.7,19.3c-0.2,0.9-0.5,1.8-0.9,2.6c-0.5,0.8-1,1.5-1.6,2.1
	c-0.6,0.6-1.4,1.1-2.1,1.4c-0.8,0.3-1.6,0.5-2.4,0.5h-8.4l2.3-13.3H31c0.8,0,1.5,0.2,2.2,0.5s1.2,0.9,1.6,1.5
	c0.4,0.6,0.7,1.3,0.9,2.2C35.9,17.6,35.9,18.4,35.7,19.3z"/>
<path fill="#04448A" d="M122,28.7c-0.1,0.6-0.1,1.2,0,1.7c0.1,0.5,0.3,1,0.6,1.3c0.3,0.4,0.7,0.7,1.1,0.9c0.4,0.2,0.9,0.3,1.5,0.3
	c0.6,0,1.1-0.1,1.6-0.3c0.5-0.2,1-0.5,1.4-0.9c0.4-0.4,0.8-0.8,1.1-1.3c0.3-0.5,0.5-1.1,0.6-1.7c0.1-0.6,0.1-1.2,0-1.7
	c-0.1-0.5-0.3-1-0.6-1.3c-0.3-0.4-0.7-0.7-1.1-0.9c-0.4-0.2-0.9-0.3-1.5-0.3s-1.1,0.1-1.6,0.3c-0.5,0.2-1,0.5-1.4,0.9
	c-0.4,0.4-0.8,0.8-1.1,1.3C122.3,27.5,122.1,28.1,122,28.7z"/>
<path fill="#04448A" d="M156.1,28.7c0.7-4,0.6-7.7-0.4-11.2s-2.6-6.5-4.9-9.1c-2.3-2.6-5.1-4.6-8.5-6.1C138.9,0.7,135.2,0,131,0
	c-2.8,0-5.5,0.3-8.2,1c-2.7,0.7-5.2,1.6-7.7,2.9s-4.7,2.7-6.9,4.5c-2.1,1.7-4.1,3.7-5.7,5.8c-1.7,2.1-3.1,4.4-4.2,6.9
	c-1.2,2.5-2,5-2.4,7.7c-0.7,4-0.6,7.7,0.4,11.2c1,3.5,2.6,6.5,4.8,9.1c2.3,2.6,5.1,4.6,8.5,6.1c3.4,1.5,7.2,2.3,11.4,2.3
	c2.5,0,4.9-0.3,7.3-0.8c2.4-0.5,4.7-1.3,6.9-2.3l6.9,8.4l11.8-9.9l-6.1-7.4c2.2-2.4,4-4.9,5.5-7.8C154.5,34.8,155.6,31.8,156.1,28.7
	z M141,28.7c-0.4,2.3-1.2,4.4-2.3,6.4c-1.1,2-2.5,3.7-4.1,5.1c-1.6,1.4-3.4,2.6-5.4,3.4c-2,0.8-4,1.2-6.1,1.2s-4-0.4-5.6-1.2
	c-1.7-0.8-3.1-1.9-4.2-3.4c-1.1-1.4-1.9-3.1-2.3-5.1c-0.4-2-0.4-4.1,0-6.4c0.4-2.3,1.2-4.4,2.3-6.4c1.1-2,2.5-3.7,4.1-5.1
	c1.6-1.4,3.4-2.6,5.4-3.4s4-1.2,6.1-1.2c2.1,0,4,0.4,5.7,1.2s3.1,1.9,4.2,3.4c1.1,1.4,1.9,3.1,2.3,5.1S141.4,26.4,141,28.7z"/>
<path fill="#04448A" d="M206.5,1.5l1.7,33.4h0.2L224,1.4h16l-27.9,54.7h-14.5L194,27.2l-13.7,28.9h-14.5l-8.7-54.7h16l3.8,33.5h0.2
	l13.5-33.4H206.5z"/>
<path fill="#04448A" d="M230.9,38.7h15.1c-0.4,2,0.1,3.5,1.4,4.6s3.6,1.6,6.7,1.6c1.6,0,2.9-0.1,3.9-0.3c1.1-0.2,1.9-0.5,2.6-0.9
	c0.7-0.4,1.2-0.9,1.6-1.4s0.6-1.2,0.7-1.8c0.2-1.2,0.1-2.1-0.3-2.7c-0.4-0.7-1.1-1.2-2.1-1.7c-1-0.5-2.2-0.9-3.7-1.3
	c-1.5-0.4-3.2-0.9-5.1-1.6c-0.9-0.3-1.9-0.6-3.1-0.9s-2.4-0.8-3.6-1.3c-1.2-0.5-2.4-1.1-3.6-1.8c-1.2-0.7-2.1-1.6-3-2.6
	c-0.8-1-1.4-2.2-1.8-3.6c-0.4-1.4-0.4-2.9-0.1-4.7c1-5.9,3.7-10.3,8.1-13.4c4.4-3.1,10.5-4.6,18.3-4.6c3.3,0,6.2,0.4,8.6,1.2
	c2.4,0.8,4.3,2,5.8,3.6c1.5,1.5,2.4,3.4,3,5.6c0.5,2.2,0.5,4.7,0,7.5h-15.2c0.1-0.6,0.1-1.2,0.1-1.8c-0.1-0.6-0.3-1.2-0.7-1.7
	c-0.4-0.5-1-0.9-1.8-1.2c-0.8-0.3-1.9-0.5-3.4-0.5c-1.4,0-2.5,0.1-3.4,0.3c-0.9,0.2-1.6,0.5-2.2,0.9s-1,0.8-1.2,1.2
	c-0.3,0.5-0.4,0.9-0.5,1.4c-0.1,0.8,0,1.4,0.5,2c0.4,0.6,1.1,1.1,1.9,1.5s1.9,0.8,3,1.2c1.2,0.3,2.5,0.7,3.8,1c3,0.8,5.6,1.6,8,2.5
	c2.3,0.9,4.2,2,5.7,3.4c1.5,1.4,2.5,3,3.1,5c0.6,2,0.6,4.4,0.1,7.3c-0.5,2.8-1.5,5.3-3.2,7.4s-3.6,3.9-6,5.4
	c-2.4,1.4-5.1,2.5-8.1,3.3c-3,0.7-6.2,1.1-9.5,1.1c-4.5,0-8.2-0.6-11.1-1.7c-2.9-1.1-5.1-2.6-6.6-4.4c-1.6-1.8-2.5-3.8-3-6
	C230.5,43.2,230.5,40.9,230.9,38.7z"/>
</svg>
